{
	"asset":{
		"generator":"Khronos glTF Blender I/O v4.2.57",
		"version":"2.0"
	},
	"scene":0,
	"scenes":[
		{
			"name":"Scene",
			"nodes":[
				7
			]
		}
	],
	"nodes":[
		{
			"mesh":0,
			"name":"ArrowModel",
			"rotation":[
				-0.5,
				0.4999999701976776,
				-0.5,
				0.5
			],
			"scale":[
				0.017984921112656593,
				0.368228018283844,
				0.017984921112656593
			],
			"translation":[
				0,
				0.026743894442915916,
				0.8501778841018677
			]
		},
		{
			"mesh":1,
			"name":"ArrowModel.001",
			"rotation":[
				-0.5,
				0.4999999701976776,
				-0.5,
				0.5
			],
			"scale":[
				0.017984921112656593,
				0.368228018283844,
				0.017984921112656593
			],
			"translation":[
				-0.015607199631631374,
				-0.14025180041790009,
				0.5580511093139648
			]
		},
		{
			"mesh":2,
			"name":"ArrowModel.002",
			"rotation":[
				-0.5,
				0.4999999701976776,
				-0.5,
				0.5
			],
			"scale":[
				0.017984921112656593,
				0.368228018283844,
				0.017984921112656593
			],
			"translation":[
				0.027409829199314117,
				-0.20093519985675812,
				0.511914849281311
			]
		},
		{
			"mesh":3,
			"name":"ArrowModel.003",
			"rotation":[
				-0.4996608793735504,
				0.5002952218055725,
				-0.4998857378959656,
				0.5001580119132996
			],
			"scale":[
				0.017984921112656593,
				0.3682279884815216,
				0.017984919250011444
			],
			"translation":[
				-0.009934359230101109,
				-0.25422215461730957,
				0.45070064067840576
			]
		},
		{
			"mesh":4,
			"name":"BowPart",
			"scale":[
				2.2019219398498535,
				2.2019219398498535,
				2.2019219398498535
			],
			"translation":[
				0.0012370931217446923,
				-0.005426106974482536,
				0.7285509705543518
			]
		},
		{
			"mesh":5,
			"name":"Human 2",
			"rotation":[
				-0.28068187832832336,
				-0.052212897688150406,
				-0.7914806604385376,
				0.5404165983200073
			],
			"scale":[
				2.057246208190918,
				2.057246446609497,
				2.057246446609497
			],
			"translation":[
				-0.007284918334335089,
				-0.1474541276693344,
				0.07330543547868729
			]
		},
		{
			"mesh":6,
			"name":"Telescope",
			"rotation":[
				0,
				0.7071068286895752,
				0,
				0.7071068286895752
			],
			"scale":[
				2.057246208190918,
				2.057246208190918,
				2.057246208190918
			],
			"translation":[
				-0.001307024504058063,
				0.23210012912750244,
				0.30416256189346313
			]
		},
		{
			"children":[
				0,
				1,
				2,
				3,
				4,
				5,
				6
			],
			"mesh":7,
			"name":"Crossbow",
			"scale":[
				0.4860866665840149,
				0.4860866665840149,
				0.4860866665840149
			],
			"translation":[
				0,
				0.007951227948069572,
				0
			]
		}
	],
	"materials":[
		{
			"doubleSided":true,
			"name":"arrow",
			"pbrMetallicRoughness":{
				"baseColorTexture":{
					"index":0
				},
				"metallicFactor":0,
				"roughnessFactor":0.5
			}
		},
		{
			"doubleSided":true,
			"name":"crossbow",
			"pbrMetallicRoughness":{
				"baseColorTexture":{
					"index":1
				},
				"metallicFactor":0,
				"roughnessFactor":0.5
			}
		}
	],
	"meshes":[
		{
			"name":"Cylinder",
			"primitives":[
				{
					"attributes":{
						"POSITION":0,
						"NORMAL":1,
						"TEXCOORD_0":2
					},
					"indices":3,
					"material":0
				}
			]
		},
		{
			"name":"Cylinder.001",
			"primitives":[
				{
					"attributes":{
						"POSITION":4,
						"NORMAL":5,
						"TEXCOORD_0":6
					},
					"indices":3,
					"material":0
				}
			]
		},
		{
			"name":"Cylinder.002",
			"primitives":[
				{
					"attributes":{
						"POSITION":7,
						"NORMAL":8,
						"TEXCOORD_0":9
					},
					"indices":3,
					"material":0
				}
			]
		},
		{
			"name":"Cylinder.003",
			"primitives":[
				{
					"attributes":{
						"POSITION":10,
						"NORMAL":11,
						"TEXCOORD_0":12
					},
					"indices":3,
					"material":0
				}
			]
		},
		{
			"name":"Cube.004",
			"primitives":[
				{
					"attributes":{
						"POSITION":13,
						"NORMAL":14,
						"TEXCOORD_0":15
					},
					"indices":16,
					"material":1
				}
			]
		},
		{
			"name":"Human",
			"primitives":[
				{
					"attributes":{
						"POSITION":17,
						"NORMAL":18,
						"TEXCOORD_0":19
					},
					"indices":20,
					"material":1
				}
			]
		},
		{
			"name":"3D_telescope_1",
			"primitives":[
				{
					"attributes":{
						"POSITION":21,
						"NORMAL":22,
						"TEXCOORD_0":23
					},
					"indices":24,
					"material":1
				}
			]
		},
		{
			"name":"Cube.003",
			"primitives":[
				{
					"attributes":{
						"POSITION":25,
						"NORMAL":26,
						"TEXCOORD_0":27
					},
					"indices":28,
					"material":1
				}
			]
		}
	],
	"textures":[
		{
			"sampler":0,
			"source":0
		},
		{
			"sampler":0,
			"source":0
		}
	],
	"images":[
		{
			"mimeType":"image/png",
			"name":"t_universal_c_01",
			"uri":"t_universal_c_01.png"
		}
	],
	"accessors":[
		{
			"bufferView":0,
			"componentType":5126,
			"count":342,
			"max":[
				2.9096200466156006,
				1.1115119457244873,
				2.909618377685547
			],
			"min":[
				-2.909616708755493,
				-1.212028980255127,
				-2.909618377685547
			],
			"type":"VEC3"
		},
		{
			"bufferView":1,
			"componentType":5126,
			"count":342,
			"type":"VEC3"
		},
		{
			"bufferView":2,
			"componentType":5126,
			"count":342,
			"type":"VEC2"
		},
		{
			"bufferView":3,
			"componentType":5123,
			"count":558,
			"type":"SCALAR"
		},
		{
			"bufferView":4,
			"componentType":5126,
			"count":342,
			"max":[
				2.9096200466156006,
				1.1115119457244873,
				2.909618377685547
			],
			"min":[
				-2.909616708755493,
				-1.212028980255127,
				-2.909618377685547
			],
			"type":"VEC3"
		},
		{
			"bufferView":5,
			"componentType":5126,
			"count":342,
			"type":"VEC3"
		},
		{
			"bufferView":6,
			"componentType":5126,
			"count":342,
			"type":"VEC2"
		},
		{
			"bufferView":7,
			"componentType":5126,
			"count":342,
			"max":[
				2.9096200466156006,
				1.1115119457244873,
				2.909618377685547
			],
			"min":[
				-2.909616708755493,
				-1.212028980255127,
				-2.909618377685547
			],
			"type":"VEC3"
		},
		{
			"bufferView":8,
			"componentType":5126,
			"count":342,
			"type":"VEC3"
		},
		{
			"bufferView":9,
			"componentType":5126,
			"count":342,
			"type":"VEC2"
		},
		{
			"bufferView":10,
			"componentType":5126,
			"count":342,
			"max":[
				2.9096200466156006,
				1.1115119457244873,
				2.909618377685547
			],
			"min":[
				-2.909616708755493,
				-1.212028980255127,
				-2.909618377685547
			],
			"type":"VEC3"
		},
		{
			"bufferView":11,
			"componentType":5126,
			"count":342,
			"type":"VEC3"
		},
		{
			"bufferView":12,
			"componentType":5126,
			"count":342,
			"type":"VEC2"
		},
		{
			"bufferView":13,
			"componentType":5126,
			"count":166,
			"max":[
				0.36946389079093933,
				0.049970999360084534,
				0.20743536949157715
			],
			"min":[
				-0.3697923719882965,
				-0.04733738675713539,
				-0.1506640613079071
			],
			"type":"VEC3"
		},
		{
			"bufferView":14,
			"componentType":5126,
			"count":166,
			"type":"VEC3"
		},
		{
			"bufferView":15,
			"componentType":5126,
			"count":166,
			"type":"VEC2"
		},
		{
			"bufferView":16,
			"componentType":5123,
			"count":738,
			"type":"SCALAR"
		},
		{
			"bufferView":17,
			"componentType":5126,
			"count":328,
			"max":[
				0.03258924186229706,
				0.3888264298439026,
				0.07025811076164246
			],
			"min":[
				-0.09956540912389755,
				-0.0933455303311348,
				-0.10967150330543518
			],
			"type":"VEC3"
		},
		{
			"bufferView":18,
			"componentType":5126,
			"count":328,
			"type":"VEC3"
		},
		{
			"bufferView":19,
			"componentType":5126,
			"count":328,
			"type":"VEC2"
		},
		{
			"bufferView":20,
			"componentType":5123,
			"count":1842,
			"type":"SCALAR"
		},
		{
			"bufferView":21,
			"componentType":5126,
			"count":1309,
			"max":[
				0.3681133985519409,
				0.07039026916027069,
				0.06321422755718231
			],
			"min":[
				-0.31368374824523926,
				-0.12753623723983765,
				-0.06274956464767456
			],
			"type":"VEC3"
		},
		{
			"bufferView":22,
			"componentType":5126,
			"count":1309,
			"type":"VEC3"
		},
		{
			"bufferView":23,
			"componentType":5126,
			"count":1309,
			"type":"VEC2"
		},
		{
			"bufferView":24,
			"componentType":5123,
			"count":5751,
			"type":"SCALAR"
		},
		{
			"bufferView":25,
			"componentType":5126,
			"count":6351,
			"max":[
				0.11089217662811279,
				0.10733135789632797,
				0.8314793705940247
			],
			"min":[
				-0.10007169842720032,
				-0.2883993983268738,
				-0.8029685616493225
			],
			"type":"VEC3"
		},
		{
			"bufferView":26,
			"componentType":5126,
			"count":6351,
			"type":"VEC3"
		},
		{
			"bufferView":27,
			"componentType":5126,
			"count":6351,
			"type":"VEC2"
		},
		{
			"bufferView":28,
			"componentType":5123,
			"count":35682,
			"type":"SCALAR"
		}
	],
	"bufferViews":[
		{
			"buffer":0,
			"byteLength":4104,
			"byteOffset":0,
			"target":34962
		},
		{
			"buffer":0,
			"byteLength":4104,
			"byteOffset":4104,
			"target":34962
		},
		{
			"buffer":0,
			"byteLength":2736,
			"byteOffset":8208,
			"target":34962
		},
		{
			"buffer":0,
			"byteLength":1116,
			"byteOffset":10944,
			"target":34963
		},
		{
			"buffer":0,
			"byteLength":4104,
			"byteOffset":12060,
			"target":34962
		},
		{
			"buffer":0,
			"byteLength":4104,
			"byteOffset":16164,
			"target":34962
		},
		{
			"buffer":0,
			"byteLength":2736,
			"byteOffset":20268,
			"target":34962
		},
		{
			"buffer":0,
			"byteLength":4104,
			"byteOffset":23004,
			"target":34962
		},
		{
			"buffer":0,
			"byteLength":4104,
			"byteOffset":27108,
			"target":34962
		},
		{
			"buffer":0,
			"byteLength":2736,
			"byteOffset":31212,
			"target":34962
		},
		{
			"buffer":0,
			"byteLength":4104,
			"byteOffset":33948,
			"target":34962
		},
		{
			"buffer":0,
			"byteLength":4104,
			"byteOffset":38052,
			"target":34962
		},
		{
			"buffer":0,
			"byteLength":2736,
			"byteOffset":42156,
			"target":34962
		},
		{
			"buffer":0,
			"byteLength":1992,
			"byteOffset":44892,
			"target":34962
		},
		{
			"buffer":0,
			"byteLength":1992,
			"byteOffset":46884,
			"target":34962
		},
		{
			"buffer":0,
			"byteLength":1328,
			"byteOffset":48876,
			"target":34962
		},
		{
			"buffer":0,
			"byteLength":1476,
			"byteOffset":50204,
			"target":34963
		},
		{
			"buffer":0,
			"byteLength":3936,
			"byteOffset":51680,
			"target":34962
		},
		{
			"buffer":0,
			"byteLength":3936,
			"byteOffset":55616,
			"target":34962
		},
		{
			"buffer":0,
			"byteLength":2624,
			"byteOffset":59552,
			"target":34962
		},
		{
			"buffer":0,
			"byteLength":3684,
			"byteOffset":62176,
			"target":34963
		},
		{
			"buffer":0,
			"byteLength":15708,
			"byteOffset":65860,
			"target":34962
		},
		{
			"buffer":0,
			"byteLength":15708,
			"byteOffset":81568,
			"target":34962
		},
		{
			"buffer":0,
			"byteLength":10472,
			"byteOffset":97276,
			"target":34962
		},
		{
			"buffer":0,
			"byteLength":11502,
			"byteOffset":107748,
			"target":34963
		},
		{
			"buffer":0,
			"byteLength":76212,
			"byteOffset":119252,
			"target":34962
		},
		{
			"buffer":0,
			"byteLength":76212,
			"byteOffset":195464,
			"target":34962
		},
		{
			"buffer":0,
			"byteLength":50808,
			"byteOffset":271676,
			"target":34962
		},
		{
			"buffer":0,
			"byteLength":71364,
			"byteOffset":322484,
			"target":34963
		}
	],
	"samplers":[
		{
			"magFilter":9729,
			"minFilter":9987
		}
	],
	"buffers":[
		{
			"byteLength":393848,
			"uri":"crossbow.bin"
		}
	]
}
